<svg width="370" height="289" viewBox="0 0 370 289" fill="none" xmlns="http://www.w3.org/2000/svg">
<path d="M32.856 184.151V196H31.309V184.151H32.856ZM37.3796 187.959V193.45C37.3796 193.903 37.4759 194.226 37.6686 194.419C37.8613 194.6 38.1956 194.691 38.6716 194.691H39.8106V196H38.4166C37.5553 196 36.9093 195.802 36.4786 195.405C36.0479 195.008 35.8326 194.357 35.8326 193.45V187.959H34.6256V186.684H35.8326V184.338H37.3796V186.684H39.8106V187.959H37.3796ZM47.0162 185.171C46.7215 185.171 46.4722 185.069 46.2682 184.865C46.0642 184.661 45.9622 184.412 45.9622 184.117C45.9622 183.822 46.0642 183.573 46.2682 183.369C46.4722 183.165 46.7215 183.063 47.0162 183.063C47.2995 183.063 47.5375 183.165 47.7302 183.369C47.9342 183.573 48.0362 183.822 48.0362 184.117C48.0362 184.412 47.9342 184.661 47.7302 184.865C47.5375 185.069 47.2995 185.171 47.0162 185.171ZM47.7642 186.684V196H46.2172V186.684H47.7642ZM53.6988 196.153C52.9848 196.153 52.3445 196.034 51.7778 195.796C51.2111 195.547 50.7635 195.207 50.4348 194.776C50.1061 194.334 49.9248 193.83 49.8908 193.263H51.4888C51.5341 193.728 51.7495 194.107 52.1348 194.402C52.5315 194.697 53.0471 194.844 53.6818 194.844C54.2711 194.844 54.7358 194.714 55.0758 194.453C55.4158 194.192 55.5858 193.864 55.5858 193.467C55.5858 193.059 55.4045 192.759 55.0418 192.566C54.6791 192.362 54.1181 192.164 53.3588 191.971C52.6675 191.79 52.1008 191.608 51.6588 191.427C51.2281 191.234 50.8541 190.957 50.5368 190.594C50.2308 190.22 50.0778 189.733 50.0778 189.132C50.0778 188.656 50.2195 188.22 50.5028 187.823C50.7861 187.426 51.1885 187.115 51.7098 186.888C52.2311 186.65 52.8261 186.531 53.4948 186.531C54.5261 186.531 55.3591 186.792 55.9938 187.313C56.6285 187.834 56.9685 188.548 57.0138 189.455H55.4668C55.4328 188.968 55.2345 188.577 54.8718 188.282C54.5205 187.987 54.0445 187.84 53.4438 187.84C52.8885 187.84 52.4465 187.959 52.1178 188.197C51.7891 188.435 51.6248 188.747 51.6248 189.132C51.6248 189.438 51.7211 189.693 51.9138 189.897C52.1178 190.09 52.3671 190.248 52.6618 190.373C52.9678 190.486 53.3871 190.617 53.9198 190.764C54.5885 190.945 55.1325 191.127 55.5518 191.308C55.9711 191.478 56.3281 191.739 56.6228 192.09C56.9288 192.441 57.0875 192.9 57.0988 193.467C57.0988 193.977 56.9571 194.436 56.6738 194.844C56.3905 195.252 55.9881 195.575 55.4668 195.813C54.9568 196.04 54.3675 196.153 53.6988 196.153ZM63.2369 191.308C63.2369 190.356 63.4295 189.523 63.8149 188.809C64.2002 188.084 64.7272 187.523 65.3959 187.126C66.0759 186.729 66.8295 186.531 67.6569 186.531C68.4729 186.531 69.1812 186.707 69.7819 187.058C70.3825 187.409 70.8302 187.851 71.1249 188.384V186.684H72.6889V196H71.1249V194.266C70.8189 194.81 70.3599 195.263 69.7479 195.626C69.1472 195.977 68.4445 196.153 67.6399 196.153C66.8125 196.153 66.0645 195.949 65.3959 195.541C64.7272 195.133 64.2002 194.561 63.8149 193.824C63.4295 193.087 63.2369 192.249 63.2369 191.308ZM71.1249 191.325C71.1249 190.622 70.9832 190.01 70.6999 189.489C70.4165 188.968 70.0312 188.571 69.5439 188.299C69.0679 188.016 68.5409 187.874 67.9629 187.874C67.3849 187.874 66.8579 188.01 66.3819 188.282C65.9059 188.554 65.5262 188.951 65.2429 189.472C64.9595 189.993 64.8179 190.605 64.8179 191.308C64.8179 192.022 64.9595 192.645 65.2429 193.178C65.5262 193.699 65.9059 194.102 66.3819 194.385C66.8579 194.657 67.3849 194.793 67.9629 194.793C68.5409 194.793 69.0679 194.657 69.5439 194.385C70.0312 194.102 70.4165 193.699 70.6999 193.178C70.9832 192.645 71.1249 192.028 71.1249 191.325ZM81.3824 183.42V196H79.8354V183.42H81.3824ZM88.082 196.153C87.2093 196.153 86.416 195.955 85.702 195.558C84.9993 195.161 84.444 194.6 84.036 193.875C83.6393 193.138 83.441 192.288 83.441 191.325C83.441 190.373 83.645 189.534 84.053 188.809C84.4723 188.072 85.039 187.511 85.753 187.126C86.467 186.729 87.266 186.531 88.15 186.531C89.034 186.531 89.833 186.729 90.547 187.126C91.261 187.511 91.822 188.067 92.23 188.792C92.6493 189.517 92.859 190.362 92.859 191.325C92.859 192.288 92.6436 193.138 92.213 193.875C91.7936 194.6 91.2213 195.161 90.496 195.558C89.7706 195.955 88.966 196.153 88.082 196.153ZM88.082 194.793C88.6373 194.793 89.1586 194.663 89.646 194.402C90.1333 194.141 90.5243 193.75 90.819 193.229C91.125 192.708 91.278 192.073 91.278 191.325C91.278 190.577 91.1306 189.942 90.836 189.421C90.5413 188.9 90.156 188.514 89.68 188.265C89.204 188.004 88.6883 187.874 88.133 187.874C87.5663 187.874 87.045 188.004 86.569 188.265C86.1043 188.514 85.7303 188.9 85.447 189.421C85.1636 189.942 85.022 190.577 85.022 191.325C85.022 192.084 85.158 192.725 85.43 193.246C85.7133 193.767 86.0873 194.158 86.552 194.419C87.0166 194.668 87.5266 194.793 88.082 194.793ZM99.432 186.514C100.565 186.514 101.483 186.86 102.186 187.551C102.889 188.231 103.24 189.217 103.24 190.509V196H101.71V190.73C101.71 189.801 101.478 189.092 101.013 188.605C100.548 188.106 99.9137 187.857 99.109 187.857C98.293 187.857 97.6413 188.112 97.154 188.622C96.678 189.132 96.44 189.874 96.44 190.849V196H94.893V186.684H96.44V188.01C96.746 187.534 97.1597 187.166 97.681 186.905C98.2137 186.644 98.7973 186.514 99.432 186.514ZM109.609 186.531C110.414 186.531 111.116 186.707 111.717 187.058C112.329 187.409 112.782 187.851 113.077 188.384V186.684H114.641V196.204C114.641 197.054 114.46 197.808 114.097 198.465C113.734 199.134 113.213 199.655 112.533 200.029C111.864 200.403 111.082 200.59 110.187 200.59C108.963 200.59 107.943 200.301 107.127 199.723C106.311 199.145 105.829 198.357 105.682 197.36H107.212C107.382 197.927 107.733 198.38 108.266 198.72C108.799 199.071 109.439 199.247 110.187 199.247C111.037 199.247 111.728 198.981 112.261 198.448C112.805 197.915 113.077 197.167 113.077 196.204V194.249C112.771 194.793 112.318 195.246 111.717 195.609C111.116 195.972 110.414 196.153 109.609 196.153C108.782 196.153 108.028 195.949 107.348 195.541C106.679 195.133 106.152 194.561 105.767 193.824C105.382 193.087 105.189 192.249 105.189 191.308C105.189 190.356 105.382 189.523 105.767 188.809C106.152 188.084 106.679 187.523 107.348 187.126C108.028 186.729 108.782 186.531 109.609 186.531ZM113.077 191.325C113.077 190.622 112.935 190.01 112.652 189.489C112.369 188.968 111.983 188.571 111.496 188.299C111.02 188.016 110.493 187.874 109.915 187.874C109.337 187.874 108.81 188.01 108.334 188.282C107.858 188.554 107.478 188.951 107.195 189.472C106.912 189.993 106.77 190.605 106.77 191.308C106.77 192.022 106.912 192.645 107.195 193.178C107.478 193.699 107.858 194.102 108.334 194.385C108.81 194.657 109.337 194.793 109.915 194.793C110.493 194.793 111.02 194.657 111.496 194.385C111.983 194.102 112.369 193.699 112.652 193.178C112.935 192.645 113.077 192.028 113.077 191.325ZM130.288 190.985C130.288 191.28 130.271 191.591 130.237 191.92H122.791C122.847 192.838 123.159 193.558 123.726 194.079C124.304 194.589 125.001 194.844 125.817 194.844C126.485 194.844 127.041 194.691 127.483 194.385C127.936 194.068 128.253 193.648 128.435 193.127H130.101C129.851 194.022 129.353 194.753 128.605 195.32C127.857 195.875 126.927 196.153 125.817 196.153C124.933 196.153 124.139 195.955 123.437 195.558C122.745 195.161 122.201 194.6 121.805 193.875C121.408 193.138 121.21 192.288 121.21 191.325C121.21 190.362 121.402 189.517 121.788 188.792C122.173 188.067 122.711 187.511 123.403 187.126C124.105 186.729 124.91 186.531 125.817 186.531C126.701 186.531 127.483 186.724 128.163 187.109C128.843 187.494 129.364 188.027 129.727 188.707C130.101 189.376 130.288 190.135 130.288 190.985ZM128.69 190.662C128.69 190.073 128.559 189.568 128.299 189.149C128.038 188.718 127.681 188.395 127.228 188.18C126.786 187.953 126.293 187.84 125.749 187.84C124.967 187.84 124.298 188.089 123.743 188.588C123.199 189.087 122.887 189.778 122.808 190.662H128.69ZM135.628 196.153C134.914 196.153 134.273 196.034 133.707 195.796C133.14 195.547 132.692 195.207 132.364 194.776C132.035 194.334 131.854 193.83 131.82 193.263H133.418C133.463 193.728 133.678 194.107 134.064 194.402C134.46 194.697 134.976 194.844 135.611 194.844C136.2 194.844 136.665 194.714 137.005 194.453C137.345 194.192 137.515 193.864 137.515 193.467C137.515 193.059 137.333 192.759 136.971 192.566C136.608 192.362 136.047 192.164 135.288 191.971C134.596 191.79 134.03 191.608 133.588 191.427C133.157 191.234 132.783 190.957 132.466 190.594C132.16 190.22 132.007 189.733 132.007 189.132C132.007 188.656 132.148 188.22 132.432 187.823C132.715 187.426 133.117 187.115 133.639 186.888C134.16 186.65 134.755 186.531 135.424 186.531C136.455 186.531 137.288 186.792 137.923 187.313C138.557 187.834 138.897 188.548 138.943 189.455H137.396C137.362 188.968 137.163 188.577 136.801 188.282C136.449 187.987 135.973 187.84 135.373 187.84C134.817 187.84 134.375 187.959 134.047 188.197C133.718 188.435 133.554 188.747 133.554 189.132C133.554 189.438 133.65 189.693 133.843 189.897C134.047 190.09 134.296 190.248 134.591 190.373C134.897 190.486 135.316 190.617 135.849 190.764C136.517 190.945 137.061 191.127 137.481 191.308C137.9 191.478 138.257 191.739 138.552 192.09C138.858 192.441 139.016 192.9 139.028 193.467C139.028 193.977 138.886 194.436 138.603 194.844C138.319 195.252 137.917 195.575 137.396 195.813C136.886 196.04 136.296 196.153 135.628 196.153ZM143.098 187.959V193.45C143.098 193.903 143.195 194.226 143.387 194.419C143.58 194.6 143.914 194.691 144.39 194.691H145.529V196H144.135C143.274 196 142.628 195.802 142.197 195.405C141.767 195.008 141.551 194.357 141.551 193.45V187.959H140.344V186.684H141.551V184.338H143.098V186.684H145.529V187.959H143.098ZM146.826 191.308C146.826 190.356 147.018 189.523 147.404 188.809C147.789 188.084 148.316 187.523 148.985 187.126C149.665 186.729 150.418 186.531 151.246 186.531C152.062 186.531 152.77 186.707 153.371 187.058C153.971 187.409 154.419 187.851 154.714 188.384V186.684H156.278V196H154.714V194.266C154.408 194.81 153.949 195.263 153.337 195.626C152.736 195.977 152.033 196.153 151.229 196.153C150.401 196.153 149.653 195.949 148.985 195.541C148.316 195.133 147.789 194.561 147.404 193.824C147.018 193.087 146.826 192.249 146.826 191.308ZM154.714 191.325C154.714 190.622 154.572 190.01 154.289 189.489C154.005 188.968 153.62 188.571 153.133 188.299C152.657 188.016 152.13 187.874 151.552 187.874C150.974 187.874 150.447 188.01 149.971 188.282C149.495 188.554 149.115 188.951 148.832 189.472C148.548 189.993 148.407 190.605 148.407 191.308C148.407 192.022 148.548 192.645 148.832 193.178C149.115 193.699 149.495 194.102 149.971 194.385C150.447 194.657 150.974 194.793 151.552 194.793C152.13 194.793 152.657 194.657 153.133 194.385C153.62 194.102 154.005 193.699 154.289 193.178C154.572 192.645 154.714 192.028 154.714 191.325ZM160.439 188.418C160.756 187.863 161.221 187.409 161.833 187.058C162.445 186.707 163.142 186.531 163.924 186.531C164.763 186.531 165.516 186.729 166.185 187.126C166.854 187.523 167.381 188.084 167.766 188.809C168.151 189.523 168.344 190.356 168.344 191.308C168.344 192.249 168.151 193.087 167.766 193.824C167.381 194.561 166.848 195.133 166.168 195.541C165.499 195.949 164.751 196.153 163.924 196.153C163.119 196.153 162.411 195.977 161.799 195.626C161.198 195.275 160.745 194.827 160.439 194.283V196H158.892V183.42H160.439V188.418ZM166.763 191.308C166.763 190.605 166.621 189.993 166.338 189.472C166.055 188.951 165.669 188.554 165.182 188.282C164.706 188.01 164.179 187.874 163.601 187.874C163.034 187.874 162.507 188.016 162.02 188.299C161.544 188.571 161.159 188.973 160.864 189.506C160.581 190.027 160.439 190.634 160.439 191.325C160.439 192.028 160.581 192.645 160.864 193.178C161.159 193.699 161.544 194.102 162.02 194.385C162.507 194.657 163.034 194.793 163.601 194.793C164.179 194.793 164.706 194.657 165.182 194.385C165.669 194.102 166.055 193.699 166.338 193.178C166.621 192.645 166.763 192.022 166.763 191.308ZM171.927 183.42V196H170.38V183.42H171.927ZM175.363 185.171C175.068 185.171 174.819 185.069 174.615 184.865C174.411 184.661 174.309 184.412 174.309 184.117C174.309 183.822 174.411 183.573 174.615 183.369C174.819 183.165 175.068 183.063 175.363 183.063C175.646 183.063 175.884 183.165 176.077 183.369C176.281 183.573 176.383 183.822 176.383 184.117C176.383 184.412 176.281 184.661 176.077 184.865C175.884 185.069 175.646 185.171 175.363 185.171ZM176.111 186.684V196H174.564V186.684H176.111ZM182.045 196.153C181.331 196.153 180.691 196.034 180.124 195.796C179.558 195.547 179.11 195.207 178.781 194.776C178.453 194.334 178.271 193.83 178.237 193.263H179.835C179.881 193.728 180.096 194.107 180.481 194.402C180.878 194.697 181.394 194.844 182.028 194.844C182.618 194.844 183.082 194.714 183.422 194.453C183.762 194.192 183.932 193.864 183.932 193.467C183.932 193.059 183.751 192.759 183.388 192.566C183.026 192.362 182.465 192.164 181.705 191.971C181.014 191.79 180.447 191.608 180.005 191.427C179.575 191.234 179.201 190.957 178.883 190.594C178.577 190.22 178.424 189.733 178.424 189.132C178.424 188.656 178.566 188.22 178.849 187.823C179.133 187.426 179.535 187.115 180.056 186.888C180.578 186.65 181.173 186.531 181.841 186.531C182.873 186.531 183.706 186.792 184.34 187.313C184.975 187.834 185.315 188.548 185.36 189.455H183.813C183.779 188.968 183.581 188.577 183.218 188.282C182.867 187.987 182.391 187.84 181.79 187.84C181.235 187.84 180.793 187.959 180.464 188.197C180.136 188.435 179.971 188.747 179.971 189.132C179.971 189.438 180.068 189.693 180.26 189.897C180.464 190.09 180.714 190.248 181.008 190.373C181.314 190.486 181.734 190.617 182.266 190.764C182.935 190.945 183.479 191.127 183.898 191.308C184.318 191.478 184.675 191.739 184.969 192.09C185.275 192.441 185.434 192.9 185.445 193.467C185.445 193.977 185.304 194.436 185.02 194.844C184.737 195.252 184.335 195.575 183.813 195.813C183.303 196.04 182.714 196.153 182.045 196.153ZM192.253 186.514C192.956 186.514 193.591 186.667 194.157 186.973C194.724 187.268 195.166 187.715 195.483 188.316C195.812 188.917 195.976 189.648 195.976 190.509V196H194.446V190.73C194.446 189.801 194.214 189.092 193.749 188.605C193.285 188.106 192.65 187.857 191.845 187.857C191.029 187.857 190.378 188.112 189.89 188.622C189.414 189.132 189.176 189.874 189.176 190.849V196H187.629V183.42H189.176V188.01C189.482 187.534 189.902 187.166 190.434 186.905C190.978 186.644 191.585 186.514 192.253 186.514ZM207.003 190.985C207.003 191.28 206.986 191.591 206.952 191.92H199.506C199.563 192.838 199.875 193.558 200.441 194.079C201.019 194.589 201.716 194.844 202.532 194.844C203.201 194.844 203.756 194.691 204.198 194.385C204.652 194.068 204.969 193.648 205.15 193.127H206.816C206.567 194.022 206.068 194.753 205.32 195.32C204.572 195.875 203.643 196.153 202.532 196.153C201.648 196.153 200.855 195.955 200.152 195.558C199.461 195.161 198.917 194.6 198.52 193.875C198.124 193.138 197.925 192.288 197.925 191.325C197.925 190.362 198.118 189.517 198.503 188.792C198.889 188.067 199.427 187.511 200.118 187.126C200.821 186.729 201.626 186.531 202.532 186.531C203.416 186.531 204.198 186.724 204.878 187.109C205.558 187.494 206.08 188.027 206.442 188.707C206.816 189.376 207.003 190.135 207.003 190.985ZM205.405 190.662C205.405 190.073 205.275 189.568 205.014 189.149C204.754 188.718 204.397 188.395 203.943 188.18C203.501 187.953 203.008 187.84 202.464 187.84C201.682 187.84 201.014 188.089 200.458 188.588C199.914 189.087 199.603 189.778 199.523 190.662H205.405ZM208.467 191.308C208.467 190.356 208.66 189.523 209.045 188.809C209.431 188.084 209.958 187.523 210.626 187.126C211.306 186.729 212.066 186.531 212.904 186.531C213.63 186.531 214.304 186.701 214.927 187.041C215.551 187.37 216.027 187.806 216.355 188.35V183.42H217.919V196H216.355V194.249C216.049 194.804 215.596 195.263 214.995 195.626C214.395 195.977 213.692 196.153 212.887 196.153C212.06 196.153 211.306 195.949 210.626 195.541C209.958 195.133 209.431 194.561 209.045 193.824C208.66 193.087 208.467 192.249 208.467 191.308ZM216.355 191.325C216.355 190.622 216.214 190.01 215.93 189.489C215.647 188.968 215.262 188.571 214.774 188.299C214.298 188.016 213.771 187.874 213.193 187.874C212.615 187.874 212.088 188.01 211.612 188.282C211.136 188.554 210.757 188.951 210.473 189.472C210.19 189.993 210.048 190.605 210.048 191.308C210.048 192.022 210.19 192.645 210.473 193.178C210.757 193.699 211.136 194.102 211.612 194.385C212.088 194.657 212.615 194.793 213.193 194.793C213.771 194.793 214.298 194.657 214.774 194.385C215.262 194.102 215.647 193.699 215.93 193.178C216.214 192.645 216.355 192.028 216.355 191.325ZM228.857 187.959H226.902V196H225.355V187.959H224.148V186.684H225.355V186.021C225.355 184.978 225.621 184.219 226.154 183.743C226.698 183.256 227.565 183.012 228.755 183.012V184.304C228.075 184.304 227.593 184.44 227.31 184.712C227.038 184.973 226.902 185.409 226.902 186.021V186.684H228.857V187.959ZM230.083 191.308C230.083 190.356 230.275 189.523 230.661 188.809C231.046 188.084 231.573 187.523 232.242 187.126C232.922 186.729 233.675 186.531 234.503 186.531C235.319 186.531 236.027 186.707 236.628 187.058C237.228 187.409 237.676 187.851 237.971 188.384V186.684H239.535V196H237.971V194.266C237.665 194.81 237.206 195.263 236.594 195.626C235.993 195.977 235.29 196.153 234.486 196.153C233.658 196.153 232.91 195.949 232.242 195.541C231.573 195.133 231.046 194.561 230.661 193.824C230.275 193.087 230.083 192.249 230.083 191.308ZM237.971 191.325C237.971 190.622 237.829 190.01 237.546 189.489C237.262 188.968 236.877 188.571 236.39 188.299C235.914 188.016 235.387 187.874 234.809 187.874C234.231 187.874 233.704 188.01 233.228 188.282C232.752 188.554 232.372 188.951 232.089 189.472C231.805 189.993 231.664 190.605 231.664 191.308C231.664 192.022 231.805 192.645 232.089 193.178C232.372 193.699 232.752 194.102 233.228 194.385C233.704 194.657 234.231 194.793 234.809 194.793C235.387 194.793 235.914 194.657 236.39 194.385C236.877 194.102 237.262 193.699 237.546 193.178C237.829 192.645 237.971 192.028 237.971 191.325ZM241.571 191.325C241.571 190.362 241.764 189.523 242.149 188.809C242.534 188.084 243.067 187.523 243.747 187.126C244.438 186.729 245.226 186.531 246.11 186.531C247.255 186.531 248.195 186.809 248.932 187.364C249.68 187.919 250.173 188.69 250.411 189.676H248.745C248.586 189.109 248.275 188.662 247.81 188.333C247.357 188.004 246.79 187.84 246.11 187.84C245.226 187.84 244.512 188.146 243.968 188.758C243.424 189.359 243.152 190.214 243.152 191.325C243.152 192.447 243.424 193.314 243.968 193.926C244.512 194.538 245.226 194.844 246.11 194.844C246.79 194.844 247.357 194.685 247.81 194.368C248.263 194.051 248.575 193.597 248.745 193.008H250.411C250.162 193.96 249.663 194.725 248.915 195.303C248.167 195.87 247.232 196.153 246.11 196.153C245.226 196.153 244.438 195.955 243.747 195.558C243.067 195.161 242.534 194.6 242.149 193.875C241.764 193.15 241.571 192.3 241.571 191.325ZM254.362 187.959V193.45C254.362 193.903 254.458 194.226 254.651 194.419C254.844 194.6 255.178 194.691 255.654 194.691H256.793V196H255.399C254.538 196 253.892 195.802 253.461 195.405C253.03 195.008 252.815 194.357 252.815 193.45V187.959H251.608V186.684H252.815V184.338H254.362V186.684H256.793V187.959H254.362ZM265.087 187.959V193.45C265.087 193.903 265.183 194.226 265.376 194.419C265.568 194.6 265.903 194.691 266.379 194.691H267.518V196H266.124C265.262 196 264.616 195.802 264.186 195.405C263.755 195.008 263.54 194.357 263.54 193.45V187.959H262.333V186.684H263.54V184.338H265.087V186.684H267.518V187.959H265.087ZM274.016 186.514C274.719 186.514 275.353 186.667 275.92 186.973C276.487 187.268 276.929 187.715 277.246 188.316C277.575 188.917 277.739 189.648 277.739 190.509V196H276.209V190.73C276.209 189.801 275.977 189.092 275.512 188.605C275.047 188.106 274.413 187.857 273.608 187.857C272.792 187.857 272.14 188.112 271.653 188.622C271.177 189.132 270.939 189.874 270.939 190.849V196H269.392V183.42H270.939V188.01C271.245 187.534 271.664 187.166 272.197 186.905C272.741 186.644 273.347 186.514 274.016 186.514ZM279.688 191.308C279.688 190.356 279.881 189.523 280.266 188.809C280.651 188.084 281.178 187.523 281.847 187.126C282.527 186.729 283.281 186.531 284.108 186.531C284.924 186.531 285.632 186.707 286.233 187.058C286.834 187.409 287.281 187.851 287.576 188.384V186.684H289.14V196H287.576V194.266C287.27 194.81 286.811 195.263 286.199 195.626C285.598 195.977 284.896 196.153 284.091 196.153C283.264 196.153 282.516 195.949 281.847 195.541C281.178 195.133 280.651 194.561 280.266 193.824C279.881 193.087 279.688 192.249 279.688 191.308ZM287.576 191.325C287.576 190.622 287.434 190.01 287.151 189.489C286.868 188.968 286.482 188.571 285.995 188.299C285.519 188.016 284.992 187.874 284.414 187.874C283.836 187.874 283.309 188.01 282.833 188.282C282.357 188.554 281.977 188.951 281.694 189.472C281.411 189.993 281.269 190.605 281.269 191.308C281.269 192.022 281.411 192.645 281.694 193.178C281.977 193.699 282.357 194.102 282.833 194.385C283.309 194.657 283.836 194.793 284.414 194.793C284.992 194.793 285.519 194.657 285.995 194.385C286.482 194.102 286.868 193.699 287.151 193.178C287.434 192.645 287.576 192.028 287.576 191.325ZM293.641 187.959V193.45C293.641 193.903 293.738 194.226 293.93 194.419C294.123 194.6 294.457 194.691 294.933 194.691H296.072V196H294.678C293.817 196 293.171 195.802 292.74 195.405C292.31 195.008 292.094 194.357 292.094 193.45V187.959H290.887V186.684H292.094V184.338H293.641V186.684H296.072V187.959H293.641ZM301.901 191.308C301.901 190.356 302.094 189.523 302.479 188.809C302.864 188.084 303.391 187.523 304.06 187.126C304.74 186.729 305.494 186.531 306.321 186.531C307.137 186.531 307.845 186.707 308.446 187.058C309.047 187.409 309.494 187.851 309.789 188.384V186.684H311.353V196H309.789V194.266C309.483 194.81 309.024 195.263 308.412 195.626C307.811 195.977 307.109 196.153 306.304 196.153C305.477 196.153 304.729 195.949 304.06 195.541C303.391 195.133 302.864 194.561 302.479 193.824C302.094 193.087 301.901 192.249 301.901 191.308ZM309.789 191.325C309.789 190.622 309.647 190.01 309.364 189.489C309.081 188.968 308.695 188.571 308.208 188.299C307.732 188.016 307.205 187.874 306.627 187.874C306.049 187.874 305.522 188.01 305.046 188.282C304.57 188.554 304.19 188.951 303.907 189.472C303.624 189.993 303.482 190.605 303.482 191.308C303.482 192.022 303.624 192.645 303.907 193.178C304.19 193.699 304.57 194.102 305.046 194.385C305.522 194.657 306.049 194.793 306.627 194.793C307.205 194.793 307.732 194.657 308.208 194.385C308.695 194.102 309.081 193.699 309.364 193.178C309.647 192.645 309.789 192.028 309.789 191.325ZM32.856 215.197C33.128 214.664 33.5133 214.251 34.012 213.956C34.522 213.661 35.1397 213.514 35.865 213.514V215.112H35.457C33.723 215.112 32.856 216.053 32.856 217.934V223H31.309V213.684H32.856V215.197ZM46.1508 217.985C46.1508 218.28 46.1338 218.591 46.0998 218.92H38.6538C38.7105 219.838 39.0221 220.558 39.5888 221.079C40.1668 221.589 40.8638 221.844 41.6798 221.844C42.3485 221.844 42.9038 221.691 43.3458 221.385C43.7991 221.068 44.1165 220.648 44.2978 220.127H45.9638C45.7145 221.022 45.2158 221.753 44.4678 222.32C43.7198 222.875 42.7905 223.153 41.6798 223.153C40.7958 223.153 40.0025 222.955 39.2998 222.558C38.6085 222.161 38.0645 221.6 37.6678 220.875C37.2711 220.138 37.0728 219.288 37.0728 218.325C37.0728 217.362 37.2655 216.517 37.6508 215.792C38.0361 215.067 38.5745 214.511 39.2658 214.126C39.9685 213.729 40.7731 213.531 41.6798 213.531C42.5638 213.531 43.3458 213.724 44.0258 214.109C44.7058 214.494 45.2271 215.027 45.5898 215.707C45.9638 216.376 46.1508 217.135 46.1508 217.985ZM44.5528 217.662C44.5528 217.073 44.4225 216.568 44.1618 216.149C43.9011 215.718 43.5441 215.395 43.0908 215.18C42.6488 214.953 42.1558 214.84 41.6118 214.84C40.8298 214.84 40.1611 215.089 39.6058 215.588C39.0618 216.087 38.7501 216.778 38.6708 217.662H44.5528ZM47.6148 218.308C47.6148 217.356 47.8075 216.523 48.1928 215.809C48.5781 215.084 49.1051 214.523 49.7738 214.126C50.4538 213.729 51.2075 213.531 52.0348 213.531C52.8508 213.531 53.5591 213.707 54.1598 214.058C54.7605 214.409 55.2081 214.851 55.5028 215.384V213.684H57.0668V223H55.5028V221.266C55.1968 221.81 54.7378 222.263 54.1258 222.626C53.5251 222.977 52.8225 223.153 52.0178 223.153C51.1905 223.153 50.4425 222.949 49.7738 222.541C49.1051 222.133 48.5781 221.561 48.1928 220.824C47.8075 220.087 47.6148 219.249 47.6148 218.308ZM55.5028 218.325C55.5028 217.622 55.3611 217.01 55.0778 216.489C54.7945 215.968 54.4091 215.571 53.9218 215.299C53.4458 215.016 52.9188 214.874 52.3408 214.874C51.7628 214.874 51.2358 215.01 50.7598 215.282C50.2838 215.554 49.9041 215.951 49.6208 216.472C49.3375 216.993 49.1958 217.605 49.1958 218.308C49.1958 219.022 49.3375 219.645 49.6208 220.178C49.9041 220.699 50.2838 221.102 50.7598 221.385C51.2358 221.657 51.7628 221.793 52.3408 221.793C52.9188 221.793 53.4458 221.657 53.9218 221.385C54.4091 221.102 54.7945 220.699 55.0778 220.178C55.3611 219.645 55.5028 219.028 55.5028 218.325ZM59.1031 218.308C59.1031 217.356 59.2957 216.523 59.6811 215.809C60.0664 215.084 60.5934 214.523 61.2621 214.126C61.9421 213.729 62.7014 213.531 63.5401 213.531C64.2654 213.531 64.9397 213.701 65.5631 214.041C66.1864 214.37 66.6624 214.806 66.9911 215.35V210.42H68.5551V223H66.9911V221.249C66.6851 221.804 66.2317 222.263 65.6311 222.626C65.0304 222.977 64.3277 223.153 63.5231 223.153C62.6957 223.153 61.9421 222.949 61.2621 222.541C60.5934 222.133 60.0664 221.561 59.6811 220.824C59.2957 220.087 59.1031 219.249 59.1031 218.308ZM66.9911 218.325C66.9911 217.622 66.8494 217.01 66.5661 216.489C66.2827 215.968 65.8974 215.571 65.4101 215.299C64.9341 215.016 64.4071 214.874 63.8291 214.874C63.2511 214.874 62.7241 215.01 62.2481 215.282C61.7721 215.554 61.3924 215.951 61.1091 216.472C60.8257 216.993 60.6841 217.605 60.6841 218.308C60.6841 219.022 60.8257 219.645 61.1091 220.178C61.3924 220.699 61.7721 221.102 62.2481 221.385C62.7241 221.657 63.2511 221.793 63.8291 221.793C64.4071 221.793 64.9341 221.657 65.4101 221.385C65.8974 221.102 66.2827 220.699 66.5661 220.178C66.8494 219.645 66.9911 219.028 66.9911 218.325ZM79.6694 217.985C79.6694 218.28 79.6524 218.591 79.6184 218.92H72.1724C72.229 219.838 72.5407 220.558 73.1074 221.079C73.6854 221.589 74.3824 221.844 75.1984 221.844C75.867 221.844 76.4224 221.691 76.8644 221.385C77.3177 221.068 77.635 220.648 77.8164 220.127H79.4824C79.233 221.022 78.7344 221.753 77.9864 222.32C77.2384 222.875 76.309 223.153 75.1984 223.153C74.3144 223.153 73.521 222.955 72.8184 222.558C72.127 222.161 71.583 221.6 71.1864 220.875C70.7897 220.138 70.5914 219.288 70.5914 218.325C70.5914 217.362 70.784 216.517 71.1694 215.792C71.5547 215.067 72.093 214.511 72.7844 214.126C73.487 213.729 74.2917 213.531 75.1984 213.531C76.0824 213.531 76.8644 213.724 77.5444 214.109C78.2244 214.494 78.7457 215.027 79.1084 215.707C79.4824 216.376 79.6694 217.135 79.6694 217.985ZM78.0714 217.662C78.0714 217.073 77.941 216.568 77.6804 216.149C77.4197 215.718 77.0627 215.395 76.6094 215.18C76.1674 214.953 75.6744 214.84 75.1304 214.84C74.3484 214.84 73.6797 215.089 73.1244 215.588C72.5804 216.087 72.2687 216.778 72.1894 217.662H78.0714ZM83.2583 215.197C83.5303 214.664 83.9157 214.251 84.4143 213.956C84.9243 213.661 85.542 213.514 86.2673 213.514V215.112H85.8593C84.1253 215.112 83.2583 216.053 83.2583 217.934V223H81.7113V213.684H83.2583V215.197ZM104.995 213.684L102.088 223H100.49L98.2464 215.605L96.0024 223H94.4044L91.4804 213.684H93.0614L95.2034 221.504L97.5154 213.684H99.0964L101.357 221.521L103.465 213.684H104.995ZM107.33 212.171C107.035 212.171 106.786 212.069 106.582 211.865C106.378 211.661 106.276 211.412 106.276 211.117C106.276 210.822 106.378 210.573 106.582 210.369C106.786 210.165 107.035 210.063 107.33 210.063C107.613 210.063 107.851 210.165 108.044 210.369C108.248 210.573 108.35 210.822 108.35 211.117C108.35 211.412 108.248 211.661 108.044 211.865C107.851 212.069 107.613 212.171 107.33 212.171ZM108.078 213.684V223H106.531V213.684H108.078ZM112.261 210.42V223H110.714V210.42H112.261ZM116.445 210.42V223H114.898V210.42H116.445ZM125.161 215.418C125.478 214.863 125.943 214.409 126.555 214.058C127.167 213.707 127.864 213.531 128.646 213.531C129.484 213.531 130.238 213.729 130.907 214.126C131.575 214.523 132.102 215.084 132.488 215.809C132.873 216.523 133.066 217.356 133.066 218.308C133.066 219.249 132.873 220.087 132.488 220.824C132.102 221.561 131.57 222.133 130.89 222.541C130.221 222.949 129.473 223.153 128.646 223.153C127.841 223.153 127.133 222.977 126.521 222.626C125.92 222.275 125.467 221.827 125.161 221.283V223H123.614V210.42H125.161V215.418ZM131.485 218.308C131.485 217.605 131.343 216.993 131.06 216.472C130.776 215.951 130.391 215.554 129.904 215.282C129.428 215.01 128.901 214.874 128.323 214.874C127.756 214.874 127.229 215.016 126.742 215.299C126.266 215.571 125.88 215.973 125.586 216.506C125.302 217.027 125.161 217.634 125.161 218.325C125.161 219.028 125.302 219.645 125.586 220.178C125.88 220.699 126.266 221.102 126.742 221.385C127.229 221.657 127.756 221.793 128.323 221.793C128.901 221.793 129.428 221.657 129.904 221.385C130.391 221.102 130.776 220.699 131.06 220.178C131.343 219.645 131.485 219.022 131.485 218.308ZM143.602 217.985C143.602 218.28 143.585 218.591 143.551 218.92H136.105C136.162 219.838 136.473 220.558 137.04 221.079C137.618 221.589 138.315 221.844 139.131 221.844C139.8 221.844 140.355 221.691 140.797 221.385C141.25 221.068 141.568 220.648 141.749 220.127H143.415C143.166 221.022 142.667 221.753 141.919 222.32C141.171 222.875 140.242 223.153 139.131 223.153C138.247 223.153 137.454 222.955 136.751 222.558C136.06 222.161 135.516 221.6 135.119 220.875C134.722 220.138 134.524 219.288 134.524 218.325C134.524 217.362 134.717 216.517 135.102 215.792C135.487 215.067 136.026 214.511 136.717 214.126C137.42 213.729 138.224 213.531 139.131 213.531C140.015 213.531 140.797 213.724 141.477 214.109C142.157 214.494 142.678 215.027 143.041 215.707C143.415 216.376 143.602 217.135 143.602 217.985ZM142.004 217.662C142.004 217.073 141.874 216.568 141.613 216.149C141.352 215.718 140.995 215.395 140.542 215.18C140.1 214.953 139.607 214.84 139.063 214.84C138.281 214.84 137.612 215.089 137.057 215.588C136.513 216.087 136.201 216.778 136.122 217.662H142.004ZM149.598 218.308C149.598 217.356 149.791 216.523 150.176 215.809C150.562 215.084 151.089 214.523 151.757 214.126C152.437 213.729 153.197 213.531 154.035 213.531C154.761 213.531 155.435 213.701 156.058 214.041C156.682 214.37 157.158 214.806 157.486 215.35V210.42H159.05V223H157.486V221.249C157.18 221.804 156.727 222.263 156.126 222.626C155.526 222.977 154.823 223.153 154.018 223.153C153.191 223.153 152.437 222.949 151.757 222.541C151.089 222.133 150.562 221.561 150.176 220.824C149.791 220.087 149.598 219.249 149.598 218.308ZM157.486 218.325C157.486 217.622 157.345 217.01 157.061 216.489C156.778 215.968 156.393 215.571 155.905 215.299C155.429 215.016 154.902 214.874 154.324 214.874C153.746 214.874 153.219 215.01 152.743 215.282C152.267 215.554 151.888 215.951 151.604 216.472C151.321 216.993 151.179 217.605 151.179 218.308C151.179 219.022 151.321 219.645 151.604 220.178C151.888 220.699 152.267 221.102 152.743 221.385C153.219 221.657 153.746 221.793 154.324 221.793C154.902 221.793 155.429 221.657 155.905 221.385C156.393 221.102 156.778 220.699 157.061 220.178C157.345 219.645 157.486 219.028 157.486 218.325ZM162.463 212.171C162.169 212.171 161.919 212.069 161.715 211.865C161.511 211.661 161.409 211.412 161.409 211.117C161.409 210.822 161.511 210.573 161.715 210.369C161.919 210.165 162.169 210.063 162.463 210.063C162.747 210.063 162.985 210.165 163.177 210.369C163.381 210.573 163.483 210.822 163.483 211.117C163.483 211.412 163.381 211.661 163.177 211.865C162.985 212.069 162.747 212.171 162.463 212.171ZM163.211 213.684V223H161.664V213.684H163.211ZM169.146 223.153C168.432 223.153 167.792 223.034 167.225 222.796C166.658 222.547 166.211 222.207 165.882 221.776C165.553 221.334 165.372 220.83 165.338 220.263H166.936C166.981 220.728 167.197 221.107 167.582 221.402C167.979 221.697 168.494 221.844 169.129 221.844C169.718 221.844 170.183 221.714 170.523 221.453C170.863 221.192 171.033 220.864 171.033 220.467C171.033 220.059 170.852 219.759 170.489 219.566C170.126 219.362 169.565 219.164 168.806 218.971C168.115 218.79 167.548 218.608 167.106 218.427C166.675 218.234 166.301 217.957 165.984 217.594C165.678 217.22 165.525 216.733 165.525 216.132C165.525 215.656 165.667 215.22 165.95 214.823C166.233 214.426 166.636 214.115 167.157 213.888C167.678 213.65 168.273 213.531 168.942 213.531C169.973 213.531 170.806 213.792 171.441 214.313C172.076 214.834 172.416 215.548 172.461 216.455H170.914C170.88 215.968 170.682 215.577 170.319 215.282C169.968 214.987 169.492 214.84 168.891 214.84C168.336 214.84 167.894 214.959 167.565 215.197C167.236 215.435 167.072 215.747 167.072 216.132C167.072 216.438 167.168 216.693 167.361 216.897C167.565 217.09 167.814 217.248 168.109 217.373C168.415 217.486 168.834 217.617 169.367 217.764C170.036 217.945 170.58 218.127 170.999 218.308C171.418 218.478 171.775 218.739 172.07 219.09C172.376 219.441 172.535 219.9 172.546 220.467C172.546 220.977 172.404 221.436 172.121 221.844C171.838 222.252 171.435 222.575 170.914 222.813C170.404 223.04 169.815 223.153 169.146 223.153ZM176.617 214.959V220.45C176.617 220.903 176.713 221.226 176.906 221.419C177.099 221.6 177.433 221.691 177.909 221.691H179.048V223H177.654C176.793 223 176.147 222.802 175.716 222.405C175.285 222.008 175.07 221.357 175.07 220.45V214.959H173.863V213.684H175.07V211.338H176.617V213.684H179.048V214.959H176.617ZM182.469 215.197C182.741 214.664 183.127 214.251 183.625 213.956C184.135 213.661 184.753 213.514 185.478 213.514V215.112H185.07C183.336 215.112 182.469 216.053 182.469 217.934V223H180.922V213.684H182.469V215.197ZM186.686 218.308C186.686 217.356 186.879 216.523 187.264 215.809C187.649 215.084 188.176 214.523 188.845 214.126C189.525 213.729 190.279 213.531 191.106 213.531C191.922 213.531 192.63 213.707 193.231 214.058C193.832 214.409 194.279 214.851 194.574 215.384V213.684H196.138V223H194.574V221.266C194.268 221.81 193.809 222.263 193.197 222.626C192.596 222.977 191.894 223.153 191.089 223.153C190.262 223.153 189.514 222.949 188.845 222.541C188.176 222.133 187.649 221.561 187.264 220.824C186.879 220.087 186.686 219.249 186.686 218.308ZM194.574 218.325C194.574 217.622 194.432 217.01 194.149 216.489C193.866 215.968 193.48 215.571 192.993 215.299C192.517 215.016 191.99 214.874 191.412 214.874C190.834 214.874 190.307 215.01 189.831 215.282C189.355 215.554 188.975 215.951 188.692 216.472C188.409 216.993 188.267 217.605 188.267 218.308C188.267 219.022 188.409 219.645 188.692 220.178C188.975 220.699 189.355 221.102 189.831 221.385C190.307 221.657 190.834 221.793 191.412 221.793C191.99 221.793 192.517 221.657 192.993 221.385C193.48 221.102 193.866 220.699 194.149 220.178C194.432 219.645 194.574 219.028 194.574 218.325ZM198.174 218.325C198.174 217.362 198.367 216.523 198.752 215.809C199.138 215.084 199.67 214.523 200.35 214.126C201.042 213.729 201.829 213.531 202.713 213.531C203.858 213.531 204.799 213.809 205.535 214.364C206.283 214.919 206.776 215.69 207.014 216.676H205.348C205.19 216.109 204.878 215.662 204.413 215.333C203.96 215.004 203.393 214.84 202.713 214.84C201.829 214.84 201.115 215.146 200.571 215.758C200.027 216.359 199.755 217.214 199.755 218.325C199.755 219.447 200.027 220.314 200.571 220.926C201.115 221.538 201.829 221.844 202.713 221.844C203.393 221.844 203.96 221.685 204.413 221.368C204.867 221.051 205.178 220.597 205.348 220.008H207.014C206.765 220.96 206.266 221.725 205.518 222.303C204.77 222.87 203.835 223.153 202.713 223.153C201.829 223.153 201.042 222.955 200.35 222.558C199.67 222.161 199.138 221.6 198.752 220.875C198.367 220.15 198.174 219.3 198.174 218.325ZM210.966 214.959V220.45C210.966 220.903 211.062 221.226 211.255 221.419C211.447 221.6 211.782 221.691 212.258 221.691H213.397V223H212.003C211.141 223 210.495 222.802 210.065 222.405C209.634 222.008 209.419 221.357 209.419 220.45V214.959H208.212V213.684H209.419V211.338H210.966V213.684H213.397V214.959H210.966ZM223.771 217.985C223.771 218.28 223.754 218.591 223.72 218.92H216.274C216.331 219.838 216.642 220.558 217.209 221.079C217.787 221.589 218.484 221.844 219.3 221.844C219.969 221.844 220.524 221.691 220.966 221.385C221.419 221.068 221.737 220.648 221.918 220.127H223.584C223.335 221.022 222.836 221.753 222.088 222.32C221.34 222.875 220.411 223.153 219.3 223.153C218.416 223.153 217.623 222.955 216.92 222.558C216.229 222.161 215.685 221.6 215.288 220.875C214.891 220.138 214.693 219.288 214.693 218.325C214.693 217.362 214.886 216.517 215.271 215.792C215.656 215.067 216.195 214.511 216.886 214.126C217.589 213.729 218.393 213.531 219.3 213.531C220.184 213.531 220.966 213.724 221.646 214.109C222.326 214.494 222.847 215.027 223.21 215.707C223.584 216.376 223.771 217.135 223.771 217.985ZM222.173 217.662C222.173 217.073 222.043 216.568 221.782 216.149C221.521 215.718 221.164 215.395 220.711 215.18C220.269 214.953 219.776 214.84 219.232 214.84C218.45 214.84 217.781 215.089 217.226 215.588C216.682 216.087 216.37 216.778 216.291 217.662H222.173ZM225.235 218.308C225.235 217.356 225.428 216.523 225.813 215.809C226.198 215.084 226.725 214.523 227.394 214.126C228.074 213.729 228.833 213.531 229.672 213.531C230.397 213.531 231.072 213.701 231.695 214.041C232.318 214.37 232.794 214.806 233.123 215.35V210.42H234.687V223H233.123V221.249C232.817 221.804 232.364 222.263 231.763 222.626C231.162 222.977 230.46 223.153 229.655 223.153C228.828 223.153 228.074 222.949 227.394 222.541C226.725 222.133 226.198 221.561 225.813 220.824C225.428 220.087 225.235 219.249 225.235 218.308ZM233.123 218.325C233.123 217.622 232.981 217.01 232.698 216.489C232.415 215.968 232.029 215.571 231.542 215.299C231.066 215.016 230.539 214.874 229.961 214.874C229.383 214.874 228.856 215.01 228.38 215.282C227.904 215.554 227.524 215.951 227.241 216.472C226.958 216.993 226.816 217.605 226.816 218.308C226.816 219.022 226.958 219.645 227.241 220.178C227.524 220.699 227.904 221.102 228.38 221.385C228.856 221.657 229.383 221.793 229.961 221.793C230.539 221.793 231.066 221.657 231.542 221.385C232.029 221.102 232.415 220.699 232.698 220.178C232.981 219.645 233.123 219.028 233.123 218.325ZM243.38 215.418C243.698 214.863 244.162 214.409 244.774 214.058C245.386 213.707 246.083 213.531 246.865 213.531C247.704 213.531 248.458 213.729 249.126 214.126C249.795 214.523 250.322 215.084 250.707 215.809C251.093 216.523 251.285 217.356 251.285 218.308C251.285 219.249 251.093 220.087 250.707 220.824C250.322 221.561 249.789 222.133 249.109 222.541C248.441 222.949 247.693 223.153 246.865 223.153C246.061 223.153 245.352 222.977 244.74 222.626C244.14 222.275 243.686 221.827 243.38 221.283V223H241.833V210.42H243.38V215.418ZM249.704 218.308C249.704 217.605 249.563 216.993 249.279 216.472C248.996 215.951 248.611 215.554 248.123 215.282C247.647 215.01 247.12 214.874 246.542 214.874C245.976 214.874 245.449 215.016 244.961 215.299C244.485 215.571 244.1 215.973 243.805 216.506C243.522 217.027 243.38 217.634 243.38 218.325C243.38 219.028 243.522 219.645 243.805 220.178C244.1 220.699 244.485 221.102 244.961 221.385C245.449 221.657 245.976 221.793 246.542 221.793C247.12 221.793 247.647 221.657 248.123 221.385C248.611 221.102 248.996 220.699 249.279 220.178C249.563 219.645 249.704 219.022 249.704 218.308ZM261.346 213.684L255.736 227.386H254.138L255.974 222.898L252.217 213.684H253.934L256.858 221.232L259.748 213.684H261.346ZM263.394 223.102C263.099 223.102 262.85 223 262.646 222.796C262.442 222.592 262.34 222.343 262.34 222.048C262.34 221.753 262.442 221.504 262.646 221.3C262.85 221.096 263.099 220.994 263.394 220.994C263.677 220.994 263.915 221.096 264.108 221.3C264.312 221.504 264.414 221.753 264.414 222.048C264.414 222.343 264.312 222.592 264.108 222.796C263.915 223 263.677 223.102 263.394 223.102Z" fill="#828282"/>
<rect x="30" y="34" width="71" height="71" rx="14" fill="#FFE8DF"/>
<path d="M77.1253 79.8335H58.0086C56.5618 79.8335 55.8378 79.8335 55.2852 79.5519C54.7992 79.3042 54.4042 78.9091 54.1566 78.423C53.875 77.8704 53.875 77.147 53.875 75.7002V60.4585M77.125 63.0418L69.5743 69.6487C68.67 70.4399 68.2178 70.8356 67.7226 70.9998C67.1385 71.1936 66.5043 71.1724 65.9344 70.9403C65.4513 70.7434 65.0267 70.3187 64.177 69.469C63.3458 68.6378 62.9302 68.2222 62.4563 68.0256C61.8972 67.7937 61.2746 67.7653 60.6968 67.9457C60.207 68.0986 59.7553 68.4749 58.8523 69.2274L53.875 73.3751" stroke="#CE5D30" stroke-width="2" stroke-linecap="round" stroke-linejoin="round"/>
<path d="M42.716 140.11C42.32 139.347 41.77 138.775 41.066 138.394C40.362 137.998 39.548 137.8 38.624 137.8C37.612 137.8 36.71 138.027 35.918 138.482C35.126 138.937 34.5027 139.582 34.048 140.418C33.608 141.254 33.388 142.222 33.388 143.322C33.388 144.422 33.608 145.397 34.048 146.248C34.5027 147.084 35.126 147.729 35.918 148.184C36.71 148.639 37.612 148.866 38.624 148.866C39.988 148.866 41.0953 148.485 41.946 147.722C42.7967 146.959 43.3173 145.925 43.508 144.62H37.766V142.618H46.192V144.576C46.0307 145.764 45.6053 146.857 44.916 147.854C44.2413 148.851 43.354 149.651 42.254 150.252C41.1687 150.839 39.9587 151.132 38.624 151.132C37.1867 151.132 35.874 150.802 34.686 150.142C33.498 149.467 32.552 148.536 31.848 147.348C31.1587 146.16 30.814 144.818 30.814 143.322C30.814 141.826 31.1587 140.484 31.848 139.296C32.552 138.108 33.498 137.184 34.686 136.524C35.8887 135.849 37.2013 135.512 38.624 135.512C40.252 135.512 41.6967 135.915 42.958 136.722C44.234 137.514 45.158 138.643 45.73 140.11H42.716ZM51.1736 140.638C51.5403 140.022 52.0243 139.545 52.6256 139.208C53.2416 138.856 53.9676 138.68 54.8036 138.68V141.276H54.1656C53.183 141.276 52.435 141.525 51.9216 142.024C51.423 142.523 51.1736 143.388 51.1736 144.62V151H48.6656V138.878H51.1736V140.638ZM62.367 151.198C61.223 151.198 60.189 150.941 59.265 150.428C58.341 149.9 57.615 149.167 57.087 148.228C56.559 147.275 56.295 146.175 56.295 144.928C56.295 143.696 56.5663 142.603 57.109 141.65C57.6517 140.697 58.3923 139.963 59.331 139.45C60.2697 138.937 61.3183 138.68 62.477 138.68C63.6357 138.68 64.6843 138.937 65.623 139.45C66.5617 139.963 67.3023 140.697 67.845 141.65C68.3877 142.603 68.659 143.696 68.659 144.928C68.659 146.16 68.3803 147.253 67.823 148.206C67.2657 149.159 66.503 149.9 65.535 150.428C64.5817 150.941 63.5257 151.198 62.367 151.198ZM62.367 149.02C63.0123 149.02 63.6137 148.866 64.171 148.558C64.743 148.25 65.205 147.788 65.557 147.172C65.909 146.556 66.085 145.808 66.085 144.928C66.085 144.048 65.9163 143.307 65.579 142.706C65.2417 142.09 64.7943 141.628 64.237 141.32C63.6797 141.012 63.0783 140.858 62.433 140.858C61.7877 140.858 61.1863 141.012 60.629 141.32C60.0863 141.628 59.6537 142.09 59.331 142.706C59.0083 143.307 58.847 144.048 58.847 144.928C58.847 146.233 59.177 147.245 59.837 147.964C60.5117 148.668 61.355 149.02 62.367 149.02ZM87.4183 138.878L83.6563 151H81.0163L78.5743 142.046L76.1323 151H73.4923L69.7083 138.878H72.2603L74.7903 148.624L77.3643 138.878H79.9823L82.4463 148.58L84.9543 138.878H87.4183ZM106.337 135.71L101.277 145.456V151H98.7694V145.456L93.6874 135.71H96.4814L100.023 143.212L103.565 135.71H106.337ZM113.586 151.198C112.442 151.198 111.408 150.941 110.484 150.428C109.56 149.9 108.834 149.167 108.306 148.228C107.778 147.275 107.514 146.175 107.514 144.928C107.514 143.696 107.785 142.603 108.328 141.65C108.87 140.697 109.611 139.963 110.55 139.45C111.488 138.937 112.537 138.68 113.696 138.68C114.854 138.68 115.903 138.937 116.842 139.45C117.78 139.963 118.521 140.697 119.064 141.65C119.606 142.603 119.878 143.696 119.878 144.928C119.878 146.16 119.599 147.253 119.042 148.206C118.484 149.159 117.722 149.9 116.754 150.428C115.8 150.941 114.744 151.198 113.586 151.198ZM113.586 149.02C114.231 149.02 114.832 148.866 115.39 148.558C115.962 148.25 116.424 147.788 116.776 147.172C117.128 146.556 117.304 145.808 117.304 144.928C117.304 144.048 117.135 143.307 116.798 142.706C116.46 142.09 116.013 141.628 115.456 141.32C114.898 141.012 114.297 140.858 113.652 140.858C113.006 140.858 112.405 141.012 111.848 141.32C111.305 141.628 110.872 142.09 110.55 142.706C110.227 143.307 110.066 144.048 110.066 144.928C110.066 146.233 110.396 147.245 111.056 147.964C111.73 148.668 112.574 149.02 113.586 149.02ZM133.335 138.878V151H130.827V149.57C130.431 150.069 129.91 150.465 129.265 150.758C128.634 151.037 127.96 151.176 127.241 151.176C126.288 151.176 125.43 150.978 124.667 150.582C123.919 150.186 123.325 149.599 122.885 148.822C122.46 148.045 122.247 147.106 122.247 146.006V138.878H124.733V145.632C124.733 146.717 125.004 147.553 125.547 148.14C126.09 148.712 126.83 148.998 127.769 148.998C128.708 148.998 129.448 148.712 129.991 148.14C130.548 147.553 130.827 146.717 130.827 145.632V138.878H133.335ZM139.152 140.638C139.519 140.022 140.003 139.545 140.604 139.208C141.22 138.856 141.946 138.68 142.782 138.68V141.276H142.144C141.161 141.276 140.413 141.525 139.9 142.024C139.401 142.523 139.152 143.388 139.152 144.62V151H136.644V138.878H139.152V140.638ZM158.986 143.146C159.808 143.293 160.504 143.725 161.076 144.444C161.648 145.163 161.934 145.977 161.934 146.886C161.934 147.663 161.729 148.367 161.318 148.998C160.922 149.614 160.343 150.105 159.58 150.472C158.818 150.824 157.93 151 156.918 151H150.802V135.71H156.632C157.674 135.71 158.568 135.886 159.316 136.238C160.064 136.59 160.629 137.067 161.01 137.668C161.392 138.255 161.582 138.915 161.582 139.648C161.582 140.528 161.348 141.261 160.878 141.848C160.409 142.435 159.778 142.867 158.986 143.146ZM153.31 142.134H156.412C157.234 142.134 157.872 141.951 158.326 141.584C158.796 141.203 159.03 140.66 159.03 139.956C159.03 139.267 158.796 138.731 158.326 138.35C157.872 137.954 157.234 137.756 156.412 137.756H153.31V142.134ZM156.698 148.954C157.549 148.954 158.216 148.749 158.7 148.338C159.184 147.927 159.426 147.355 159.426 146.622C159.426 145.874 159.17 145.28 158.656 144.84C158.143 144.4 157.461 144.18 156.61 144.18H153.31V148.954H156.698ZM175.638 138.878V151H173.13V149.57C172.734 150.069 172.213 150.465 171.568 150.758C170.937 151.037 170.262 151.176 169.544 151.176C168.59 151.176 167.732 150.978 166.97 150.582C166.222 150.186 165.628 149.599 165.188 148.822C164.762 148.045 164.55 147.106 164.55 146.006V138.878H167.036V145.632C167.036 146.717 167.307 147.553 167.85 148.14C168.392 148.712 169.133 148.998 170.072 148.998C171.01 148.998 171.751 148.712 172.294 148.14C172.851 147.553 173.13 146.717 173.13 145.632V138.878H175.638ZM183.347 151.198C182.394 151.198 181.536 151.029 180.773 150.692C180.025 150.34 179.431 149.871 178.991 149.284C178.551 148.683 178.316 148.015 178.287 147.282H180.883C180.927 147.795 181.169 148.228 181.609 148.58C182.064 148.917 182.628 149.086 183.303 149.086C184.007 149.086 184.55 148.954 184.931 148.69C185.327 148.411 185.525 148.059 185.525 147.634C185.525 147.179 185.305 146.842 184.865 146.622C184.44 146.402 183.758 146.16 182.819 145.896C181.91 145.647 181.169 145.405 180.597 145.17C180.025 144.935 179.526 144.576 179.101 144.092C178.69 143.608 178.485 142.97 178.485 142.178C178.485 141.533 178.676 140.946 179.057 140.418C179.438 139.875 179.981 139.45 180.685 139.142C181.404 138.834 182.225 138.68 183.149 138.68C184.528 138.68 185.635 139.032 186.471 139.736C187.322 140.425 187.776 141.371 187.835 142.574H185.327C185.283 142.031 185.063 141.599 184.667 141.276C184.271 140.953 183.736 140.792 183.061 140.792C182.401 140.792 181.895 140.917 181.543 141.166C181.191 141.415 181.015 141.745 181.015 142.156C181.015 142.479 181.132 142.75 181.367 142.97C181.602 143.19 181.888 143.366 182.225 143.498C182.562 143.615 183.061 143.769 183.721 143.96C184.601 144.195 185.32 144.437 185.877 144.686C186.449 144.921 186.94 145.273 187.351 145.742C187.762 146.211 187.974 146.835 187.989 147.612C187.989 148.301 187.798 148.917 187.417 149.46C187.036 150.003 186.493 150.428 185.789 150.736C185.1 151.044 184.286 151.198 183.347 151.198ZM191.975 137.272C191.52 137.272 191.139 137.118 190.831 136.81C190.523 136.502 190.369 136.121 190.369 135.666C190.369 135.211 190.523 134.83 190.831 134.522C191.139 134.214 191.52 134.06 191.975 134.06C192.415 134.06 192.789 134.214 193.097 134.522C193.405 134.83 193.559 135.211 193.559 135.666C193.559 136.121 193.405 136.502 193.097 136.81C192.789 137.118 192.415 137.272 191.975 137.272ZM193.207 138.878V151H190.699V138.878H193.207ZM202.616 138.68C203.569 138.68 204.42 138.878 205.168 139.274C205.93 139.67 206.524 140.257 206.95 141.034C207.375 141.811 207.588 142.75 207.588 143.85V151H205.102V144.224C205.102 143.139 204.83 142.31 204.288 141.738C203.745 141.151 203.004 140.858 202.066 140.858C201.127 140.858 200.379 141.151 199.822 141.738C199.279 142.31 199.008 143.139 199.008 144.224V151H196.5V138.878H199.008V140.264C199.418 139.765 199.939 139.377 200.57 139.098C201.215 138.819 201.897 138.68 202.616 138.68ZM221.897 144.642C221.897 145.097 221.867 145.507 221.809 145.874H212.547C212.62 146.842 212.979 147.619 213.625 148.206C214.27 148.793 215.062 149.086 216.001 149.086C217.35 149.086 218.303 148.521 218.861 147.392H221.567C221.2 148.507 220.533 149.423 219.565 150.142C218.611 150.846 217.423 151.198 216.001 151.198C214.842 151.198 213.801 150.941 212.877 150.428C211.967 149.9 211.249 149.167 210.721 148.228C210.207 147.275 209.951 146.175 209.951 144.928C209.951 143.681 210.2 142.589 210.699 141.65C211.212 140.697 211.923 139.963 212.833 139.45C213.757 138.937 214.813 138.68 216.001 138.68C217.145 138.68 218.164 138.929 219.059 139.428C219.953 139.927 220.65 140.631 221.149 141.54C221.647 142.435 221.897 143.469 221.897 144.642ZM219.279 143.85C219.264 142.926 218.934 142.185 218.289 141.628C217.643 141.071 216.844 140.792 215.891 140.792C215.025 140.792 214.285 141.071 213.669 141.628C213.053 142.171 212.686 142.911 212.569 143.85H219.279ZM228.765 151.198C227.812 151.198 226.954 151.029 226.191 150.692C225.443 150.34 224.849 149.871 224.409 149.284C223.969 148.683 223.734 148.015 223.705 147.282H226.301C226.345 147.795 226.587 148.228 227.027 148.58C227.482 148.917 228.046 149.086 228.721 149.086C229.425 149.086 229.968 148.954 230.349 148.69C230.745 148.411 230.943 148.059 230.943 147.634C230.943 147.179 230.723 146.842 230.283 146.622C229.858 146.402 229.176 146.16 228.237 145.896C227.328 145.647 226.587 145.405 226.015 145.17C225.443 144.935 224.944 144.576 224.519 144.092C224.108 143.608 223.903 142.97 223.903 142.178C223.903 141.533 224.094 140.946 224.475 140.418C224.856 139.875 225.399 139.45 226.103 139.142C226.822 138.834 227.643 138.68 228.567 138.68C229.946 138.68 231.053 139.032 231.889 139.736C232.74 140.425 233.194 141.371 233.253 142.574H230.745C230.701 142.031 230.481 141.599 230.085 141.276C229.689 140.953 229.154 140.792 228.479 140.792C227.819 140.792 227.313 140.917 226.961 141.166C226.609 141.415 226.433 141.745 226.433 142.156C226.433 142.479 226.55 142.75 226.785 142.97C227.02 143.19 227.306 143.366 227.643 143.498C227.98 143.615 228.479 143.769 229.139 143.96C230.019 144.195 230.738 144.437 231.295 144.686C231.867 144.921 232.358 145.273 232.769 145.742C233.18 146.211 233.392 146.835 233.407 147.612C233.407 148.301 233.216 148.917 232.835 149.46C232.454 150.003 231.911 150.428 231.207 150.736C230.518 151.044 229.704 151.198 228.765 151.198ZM240.517 151.198C239.563 151.198 238.705 151.029 237.943 150.692C237.195 150.34 236.601 149.871 236.161 149.284C235.721 148.683 235.486 148.015 235.457 147.282H238.053C238.097 147.795 238.339 148.228 238.779 148.58C239.233 148.917 239.798 149.086 240.473 149.086C241.177 149.086 241.719 148.954 242.101 148.69C242.497 148.411 242.695 148.059 242.695 147.634C242.695 147.179 242.475 146.842 242.035 146.622C241.609 146.402 240.927 146.16 239.989 145.896C239.079 145.647 238.339 145.405 237.767 145.17C237.195 144.935 236.696 144.576 236.271 144.092C235.86 143.608 235.655 142.97 235.655 142.178C235.655 141.533 235.845 140.946 236.227 140.418C236.608 139.875 237.151 139.45 237.855 139.142C238.573 138.834 239.395 138.68 240.319 138.68C241.697 138.68 242.805 139.032 243.641 139.736C244.491 140.425 244.946 141.371 245.005 142.574H242.497C242.453 142.031 242.233 141.599 241.837 141.276C241.441 140.953 240.905 140.792 240.231 140.792C239.571 140.792 239.065 140.917 238.713 141.166C238.361 141.415 238.185 141.745 238.185 142.156C238.185 142.479 238.302 142.75 238.537 142.97C238.771 143.19 239.057 143.366 239.395 143.498C239.732 143.615 240.231 143.769 240.891 143.96C241.771 144.195 242.489 144.437 243.047 144.686C243.619 144.921 244.11 145.273 244.521 145.742C244.931 146.211 245.144 146.835 245.159 147.612C245.159 148.301 244.968 148.917 244.587 149.46C244.205 150.003 243.663 150.428 242.959 150.736C242.269 151.044 241.455 151.198 240.517 151.198Z" fill="#212528"/>
<path d="M36.104 257L33.864 253.108H32.646V257H31.05V247.27H34.41C35.1567 247.27 35.7867 247.401 36.3 247.662C36.8227 247.923 37.21 248.273 37.462 248.712C37.7233 249.151 37.854 249.641 37.854 250.182C37.854 250.817 37.6673 251.395 37.294 251.918C36.93 252.431 36.3653 252.781 35.6 252.968L38.008 257H36.104ZM32.646 251.834H34.41C35.0073 251.834 35.4553 251.685 35.754 251.386C36.062 251.087 36.216 250.686 36.216 250.182C36.216 249.678 36.0667 249.286 35.768 249.006C35.4693 248.717 35.0167 248.572 34.41 248.572H32.646V251.834ZM46.9657 252.954C46.9657 253.243 46.947 253.505 46.9097 253.738H41.0157C41.0624 254.354 41.291 254.849 41.7017 255.222C42.1124 255.595 42.6164 255.782 43.2137 255.782C44.0724 255.782 44.679 255.423 45.0337 254.704H46.7557C46.5224 255.413 46.0977 255.997 45.4817 256.454C44.875 256.902 44.119 257.126 43.2137 257.126C42.4764 257.126 41.8137 256.963 41.2257 256.636C40.647 256.3 40.1897 255.833 39.8537 255.236C39.527 254.629 39.3637 253.929 39.3637 253.136C39.3637 252.343 39.5224 251.647 39.8397 251.05C40.1664 250.443 40.619 249.977 41.1977 249.65C41.7857 249.323 42.4577 249.16 43.2137 249.16C43.9417 249.16 44.5904 249.319 45.1597 249.636C45.729 249.953 46.1724 250.401 46.4897 250.98C46.807 251.549 46.9657 252.207 46.9657 252.954ZM45.2997 252.45C45.2904 251.862 45.0804 251.391 44.6697 251.036C44.259 250.681 43.7504 250.504 43.1437 250.504C42.593 250.504 42.1217 250.681 41.7297 251.036C41.3377 251.381 41.1044 251.853 41.0297 252.45H45.2997ZM48.0043 253.108C48.0043 252.333 48.163 251.647 48.4803 251.05C48.807 250.453 49.2457 249.991 49.7963 249.664C50.3563 249.328 50.9723 249.16 51.6443 249.16C52.251 249.16 52.7783 249.281 53.2263 249.524C53.6837 249.757 54.0477 250.051 54.3183 250.406V249.286H55.9283V257H54.3183V255.852C54.0477 256.216 53.679 256.519 53.2123 256.762C52.7457 257.005 52.2137 257.126 51.6163 257.126C50.9537 257.126 50.347 256.958 49.7963 256.622C49.2457 256.277 48.807 255.801 48.4803 255.194C48.163 254.578 48.0043 253.883 48.0043 253.108ZM54.3183 253.136C54.3183 252.604 54.2063 252.142 53.9823 251.75C53.7677 251.358 53.483 251.059 53.1283 250.854C52.7737 250.649 52.391 250.546 51.9803 250.546C51.5697 250.546 51.187 250.649 50.8323 250.854C50.4777 251.05 50.1883 251.344 49.9643 251.736C49.7497 252.119 49.6423 252.576 49.6423 253.108C49.6423 253.64 49.7497 254.107 49.9643 254.508C50.1883 254.909 50.4777 255.217 50.8323 255.432C51.1963 255.637 51.579 255.74 51.9803 255.74C52.391 255.74 52.7737 255.637 53.1283 255.432C53.483 255.227 53.7677 254.928 53.9823 254.536C54.2063 254.135 54.3183 253.668 54.3183 253.136ZM57.4926 253.108C57.4926 252.333 57.6513 251.647 57.9686 251.05C58.2953 250.453 58.7339 249.991 59.2846 249.664C59.8446 249.328 60.4653 249.16 61.1466 249.16C61.6506 249.16 62.1453 249.272 62.6306 249.496C63.1253 249.711 63.5173 250 63.8066 250.364V246.64H65.4166V257H63.8066V255.838C63.5453 256.211 63.1813 256.519 62.7146 256.762C62.2573 257.005 61.7299 257.126 61.1326 257.126C60.4606 257.126 59.8446 256.958 59.2846 256.622C58.7339 256.277 58.2953 255.801 57.9686 255.194C57.6513 254.578 57.4926 253.883 57.4926 253.108ZM63.8066 253.136C63.8066 252.604 63.6946 252.142 63.4706 251.75C63.2559 251.358 62.9713 251.059 62.6166 250.854C62.2619 250.649 61.8793 250.546 61.4686 250.546C61.0579 250.546 60.6753 250.649 60.3206 250.854C59.9659 251.05 59.6766 251.344 59.4526 251.736C59.2379 252.119 59.1306 252.576 59.1306 253.108C59.1306 253.64 59.2379 254.107 59.4526 254.508C59.6766 254.909 59.9659 255.217 60.3206 255.432C60.6846 255.637 61.0673 255.74 61.4686 255.74C61.8793 255.74 62.2619 255.637 62.6166 255.432C62.9713 255.227 63.2559 254.928 63.4706 254.536C63.6946 254.135 63.8066 253.668 63.8066 253.136ZM81.3976 247.27V257H79.8016V250.336L76.8336 257H75.7276L72.7456 250.336V257H71.1496V247.27H72.8716L76.2876 254.9L79.6896 247.27H81.3976ZM86.8413 257.126C86.1133 257.126 85.4553 256.963 84.8673 256.636C84.2793 256.3 83.8173 255.833 83.4813 255.236C83.1453 254.629 82.9773 253.929 82.9773 253.136C82.9773 252.352 83.15 251.657 83.4953 251.05C83.8406 250.443 84.312 249.977 84.9093 249.65C85.5066 249.323 86.174 249.16 86.9113 249.16C87.6486 249.16 88.316 249.323 88.9133 249.65C89.5106 249.977 89.982 250.443 90.3273 251.05C90.6726 251.657 90.8453 252.352 90.8453 253.136C90.8453 253.92 90.668 254.615 90.3133 255.222C89.9586 255.829 89.4733 256.3 88.8573 256.636C88.2506 256.963 87.5786 257.126 86.8413 257.126ZM86.8413 255.74C87.252 255.74 87.6346 255.642 87.9893 255.446C88.3533 255.25 88.6473 254.956 88.8713 254.564C89.0953 254.172 89.2073 253.696 89.2073 253.136C89.2073 252.576 89.1 252.105 88.8853 251.722C88.6706 251.33 88.386 251.036 88.0313 250.84C87.6766 250.644 87.294 250.546 86.8833 250.546C86.4726 250.546 86.09 250.644 85.7353 250.84C85.39 251.036 85.1146 251.33 84.9093 251.722C84.704 252.105 84.6013 252.576 84.6013 253.136C84.6013 253.967 84.8113 254.611 85.2313 255.068C85.6606 255.516 86.1973 255.74 86.8413 255.74ZM94.019 250.406C94.2524 250.014 94.5604 249.711 94.943 249.496C95.335 249.272 95.797 249.16 96.329 249.16V250.812H95.923C95.2977 250.812 94.8217 250.971 94.495 251.288C94.1777 251.605 94.019 252.156 94.019 252.94V257H92.423V249.286H94.019V250.406ZM104.866 252.954C104.866 253.243 104.847 253.505 104.81 253.738H98.9161C98.9628 254.354 99.1914 254.849 99.6021 255.222C100.013 255.595 100.517 255.782 101.114 255.782C101.973 255.782 102.579 255.423 102.934 254.704H104.656C104.423 255.413 103.998 255.997 103.382 256.454C102.775 256.902 102.019 257.126 101.114 257.126C100.377 257.126 99.7141 256.963 99.1261 256.636C98.5474 256.3 98.0901 255.833 97.7541 255.236C97.4274 254.629 97.2641 253.929 97.2641 253.136C97.2641 252.343 97.4228 251.647 97.7401 251.05C98.0668 250.443 98.5194 249.977 99.0981 249.65C99.6861 249.323 100.358 249.16 101.114 249.16C101.842 249.16 102.491 249.319 103.06 249.636C103.629 249.953 104.073 250.401 104.39 250.98C104.707 251.549 104.866 252.207 104.866 252.954ZM103.2 252.45C103.191 251.862 102.981 251.391 102.57 251.036C102.159 250.681 101.651 250.504 101.044 250.504C100.493 250.504 100.022 250.681 99.6301 251.036C99.2381 251.381 99.0048 251.853 98.9301 252.45H103.2ZM107.081 257.098C106.791 257.098 106.549 257 106.353 256.804C106.157 256.608 106.059 256.365 106.059 256.076C106.059 255.787 106.157 255.544 106.353 255.348C106.549 255.152 106.791 255.054 107.081 255.054C107.361 255.054 107.599 255.152 107.795 255.348C107.991 255.544 108.089 255.787 108.089 256.076C108.089 256.365 107.991 256.608 107.795 256.804C107.599 257 107.361 257.098 107.081 257.098ZM110.458 257.098C110.168 257.098 109.926 257 109.73 256.804C109.534 256.608 109.436 256.365 109.436 256.076C109.436 255.787 109.534 255.544 109.73 255.348C109.926 255.152 110.168 255.054 110.458 255.054C110.738 255.054 110.976 255.152 111.172 255.348C111.368 255.544 111.466 255.787 111.466 256.076C111.466 256.365 111.368 256.608 111.172 256.804C110.976 257 110.738 257.098 110.458 257.098ZM113.835 257.098C113.545 257.098 113.303 257 113.107 256.804C112.911 256.608 112.813 256.365 112.813 256.076C112.813 255.787 112.911 255.544 113.107 255.348C113.303 255.152 113.545 255.054 113.835 255.054C114.115 255.054 114.353 255.152 114.549 255.348C114.745 255.544 114.843 255.787 114.843 256.076C114.843 256.365 114.745 256.608 114.549 256.804C114.353 257 114.115 257.098 113.835 257.098Z" fill="#6F77F1"/>
</svg>
